#!OML:ASF H:\Male1\Project 1\Capture day 1\Session 1\Male1.ASF
:FULLY-SPECIFIED
:DEGREES
709
root -0.962783 15.289 4.94232 179.473 103.173 -179.384
lowerback 4.95163 1.39673 -1.78374
upperback 4.79498 1.9473 -1.67384
thorax 2.16184 1.00235 -0.777644
lowerneck -4.8117 5.61081 11.664
upperneck 11.1136 7.96251 -11.2207
head 5.02696 3.84194 -4.91327
rclavicle -2.04748e-014 -1.82882e-014
rhumerus -31.7572 -14.3334 -83.9457
rradius 28.6661
rwrist -15.9274
rhand -17.9811 1.56584
rfingers 7.12502
rthumb 8.28855 -28.2516
lclavicle -2.04748e-014 -1.82882e-014
lhumerus -23.8468 16.3606 81.5173
lradius 18.0753
lwrist -16.5442
lhand -20.5445 11.2867
lfingers 7.12502
lthumb 5.81412 41.1869
rfemur -15.1381 -2.42834 21.2273
rtibia 68.3508
rfoot -5.18967 -21.76
rtoes -26.2164
lfemur -2.12384 -8.63152 -30.577
ltibia 20.8238
lfoot -22.0459 19.4185
ltoes 6.20559
710
root -0.802384 15.2689 4.99849 179.064 102.184 -179.656
lowerback 5.11655 1.26384 -2.05788
upperback 4.79651 1.75621 -1.54411
thorax 2.05965 0.898071 -0.48955
lowerneck -4.77382 5.61755 11.6044
upperneck 11.4147 8.00571 -11.1615
head 5.11258 3.86655 -4.88238
rclavicle -2.49475e-014 8.74653e-015
rhumerus -31.6177 -13.9346 -83.8764
rradius 28.8798
rwrist -16.1308
rhand -17.6298 1.65885
rfingers 7.12502
rthumb 8.6276 -28.1449
lclavicle -2.49475e-014 8.74653e-015
lhumerus -22.736 12.9885 83.3192
lradius 18.9
lwrist -15.0651
lhand -20.495 10.9404
lfingers 7.12502
lthumb 5.86189 40.8394
rfemur -17.0544 -0.437099 21.4335
rtibia 68.7567
rfoot -6.54428 -21.6652
rtoes -27.5824
lfemur -1.13864 -8.90821 -30.5879
ltibia 20.5908
lfoot -22.209 19.072
ltoes 5.55837
711
root -0.633365 15.2539 5.05154 180.458 100.997 -178.297
lowerback 5.03541 1.10291 -2.57372
upperback 4.79466 1.53016 -1.52438
thorax 2.09232 0.770663 -0.171837
lowerneck -4.95695 5.67651 11.5601
upperneck 11.8791 8.08472 -10.9287
head 5.28475 3.91057 -4.7896
rclavicle 1.96797e-014 1.59028e-015
rhumerus -31.4502 -13.8414 -83.746
rradius 29.0873
rwrist -16.1646
rhand -17.19 1.90851
rfingers 7.12502
rthumb 9.05199 -27.8773
lclavicle 1.96797e-014 1.59028e-015
lhumerus -21.727 9.41731 85.0554
lradius 20.0138
lwrist -12.9519
lhand -20.312 10.8872
lfingers 7.12502
lthumb 6.03862 40.7811
rfemur -19.2892 1.29521 21.1533
rtibia 68.6292
rfoot -7.99419 -22.3374
rtoes -28.2633
lfemur -0.31505 -9.44583 -30.9474
ltibia 20.4117
lfoot -22.3891 18.6974
ltoes 5.30351
712
root -0.450329 15.2277 5.09837 182.015 100.006 -176.274
lowerback 5.26484 1.04384 -3.01832
upperback 4.9634 1.44476 -1.56044
thorax 2.13356 0.719402 0.0392188
lowerneck -5.16 5.62583 11.5001
upperneck 12.1961 7.99697 -10.6969
head 5.39524 3.8721 -4.70783
rclavicle 1.98785e-016 5.56597e-015
rhumerus -31.393 -13.7765 -83.6473
rradius 29.4219
rwrist -16.0959
rhand -17.0133 2.08135
rfingers 7.12502
rthumb 9.2225 -27.697
lclavicle 1.98785e-016 5.56597e-015
lhumerus -20.7974 5.90527 86.6652
lradius 21.2049
lwrist -10.4813
lhand -20.2481 11.0107
lfingers 7.12502
lthumb 6.10031 40.9029
rfemur -20.6485 3.00883 20.6868
rtibia 67.9348
rfoot -9.89164 -23.166
rtoes -28.3017
lfemur 1.13588 -10.0914 -31.5868
ltibia 20.2448
lfoot -22.76 18.626
ltoes 5.32553
713
root -0.259682 15.2069 5.14305 182.279 99.2394 -175.72
lowerback 5.32605 1.0505 -3.17045
upperback 5.07067 1.45473 -1.51653
thorax 2.20679 0.720118 0.168859
lowerneck -5.15584 5.51775 11.4908
upperneck 12.238 7.85216 -10.6714
head 5.38891 3.80358 -4.7106
rclavicle 2.76311e-014 7.95139e-016
rhumerus -31.4095 -13.5023 -83.6089
rradius 29.8669
rwrist -16.1706
rhand -17.1518 2.18949
rfingers 7.12502
rthumb 9.08887 -27.5947
lclavicle 2.76311e-014 7.95139e-016
lhumerus -20.1209 2.23013 88.1383
lradius 22.6115
lwrist -7.59195
lhand -20.2981 11.0088
lfingers 7.12502
lthumb 6.05199 40.9024
rfemur -21.9672 4.79847 20.5147
rtibia 66.6061
rfoot -11.9947 -24.2112
rtoes -28.1644
lfemur 2.52787 -10.6402 -31.933
ltibia 19.9119
lfoot -23.0717 18.7226
ltoes 5.34349
714
root -0.0855815 15.1954 5.19282 182.09 98.1086 -175.787
lowerback 5.59324 0.922633 -3.35182
upperback 5.08021 1.26711 -1.37769
thorax 2.06688 0.621495 0.414677
lowerneck -5.12023 5.4552 11.4851
upperneck 12.2419 7.77706 -10.6988
head 5.3758 3.76722 -4.72576
rclavicle -2.16675e-014 6.36111e-015
rhumerus -31.3735 -12.9976 -83.6468
rradius 30.3598
rwrist -16.6515
rhand -17.3822 2.33578
rfingers 7.12502
rthumb 8.86649 -27.4579
lclavicle -2.16675e-014 6.36111e-015
lhumerus -19.5331 -1.20841 89.4124
lradius 24.2089
lwrist -4.87954
lhand -19.982 11.3413
lfingers 7.12502
lthumb 6.35721 41.2259
rfemur -23.2524 6.16366 20.4767
rtibia 64.6864
rfoot -13.9762 -25.3067
rtoes -26.7135
lfemur 3.68639 -11.0679 -31.9851
ltibia 19.5359
lfoot -22.9968 18.6589
ltoes 4.38476
715
root 0.0985833 15.1891 5.23696 181.599 97.1821 -176.257
lowerback 5.67381 0.858677 -3.3929
upperback 5.117 1.17915 -1.27658
thorax 2.0604 0.57538 0.544001
lowerneck -5.32018 5.39176 11.3738
upperneck 12.4006 7.67281 -10.5457
head 5.43682 3.71414 -4.66233
rclavicle -1.96797e-014 3.57812e-015
rhumerus -31.1438 -12.7147 -83.71
rradius 30.5886
rwrist -17.0608
rhand -17.7305 2.36667
rfingers 7.12502
rthumb 8.53044 -27.441
lclavicle -1.96797e-014 3.57812e-015
lhumerus -18.9432 -4.24048 90.462
lradius 26.1135
lwrist -2.10919
lhand -19.0426 12.4606
lfingers 7.12502
lthumb 7.26401 42.3159
rfemur -24.4156 7.42275 20.386
rtibia 62.2175
rfoot -15.2979 -26.2611
rtoes -25.7241
lfemur 4.82335 -11.439 -32.0277
ltibia 19.0658
lfoot -23.0709 18.6862
ltoes 3.94949
716
root 0.285638 15.1856 5.27842 181.682 96.3312 -176.346
lowerback 5.56231 0.791282 -3.4406
upperback 5.09834 1.09077 -1.21721
thorax 2.10422 0.527846 0.636794
lowerneck -5.53142 5.34915 11.2357
upperneck 12.5765 7.59408 -10.3504
head 5.50585 3.67449 -4.57863
rclavicle 1.02374e-014 7.95139e-016
rhumerus -30.8323 -12.5881 -83.7742
rradius 30.6241
rwrist -17.222
rhand -18.0862 2.31338
rfingers 7.12502
rthumb 8.18715 -27.508
lclavicle 1.02374e-014 7.95139e-016
lhumerus -18.4905 -6.55885 91.2989
lradius 27.706
lwrist -0.890498
lhand -19.3175 12.0135
lfingers 7.12502
lthumb 6.99867 41.8778
rfemur -25.6084 8.42263 20.1272
rtibia 59.2752
rfoot -16.224 -26.8423
rtoes -27.381
lfemur 5.89551 -11.7494 -32.0999
ltibia 18.2724
lfoot -22.9284 18.7414
ltoes 3.51958
717
root 0.476124 15.1856 5.31964 182.221 95.5142 -175.87
lowerback 5.58276 0.710628 -3.56758
upperback 5.09126 0.977744 -1.15761
thorax 2.0873 0.467189 0.773001
lowerneck -5.64123 5.31128 11.1615
upperneck 12.6651 7.53665 -10.2788
head 5.54007 3.64439 -4.54584
rclavicle 9.44227e-015 -7.55382e-015
rhumerus -30.7471 -12.1382 -83.9036
rradius 31.0337
rwrist -17.5971
rhand -18.2915 2.16287
rfingers 7.12502
rthumb 7.98904 -27.6661
lclavicle 9.44227e-015 -7.55382e-015
lhumerus -18.059 -8.23156 91.9845
lradius 29.1184
lwrist -0.41834
lhand -19.8176 10.9957
lfingers 7.12502
lthumb 6.51587 40.8755
rfemur -26.4067 9.12356 19.8318
rtibia 55.8914
rfoot -16.9138 -27.0158
rtoes -29.3782
lfemur 7.3416 -11.9401 -32.228
ltibia 16.9761
lfoot -22.5463 18.8069
ltoes 2.93848
718
root 0.67151 15.1973 5.35766 182.91 94.6859 -175.153
lowerback 5.69955 0.653775 -3.63187
upperback 5.10828 0.896886 -1.11426
thorax 2.04209 0.425844 0.855251
lowerneck -5.70665 5.2419 11.0528
upperneck 12.7364 7.44191 -10.1957
head 5.55538 3.59683 -4.50787
rclavicle -2.68359e-015 -2.18663e-014
rhumerus -30.9269 -11.5521 -84.0341
rradius 31.7558
rwrist -18.1169
rhand -18.4011 1.94873
rfingers 7.12502
rthumb 7.88323 -27.8843
lclavicle -2.68359e-015 -2.18663e-014
lhumerus -17.6938 -9.9148 92.565
lradius 30.7352
lwrist 0.573733
lhand -19.6246 10.4611
lfingers 7.12502
lthumb 6.7022 40.3351
rfemur -26.8621 9.55823 19.5778
rtibia 52.1391
rfoot -17.5528 -26.8479
rtoes -29.4725
lfemur 9.2145 -12.1809 -32.3689
ltibia 15.1188
lfoot -21.9513 18.7757
ltoes 3.06344
719
root 0.869429 15.2113 5.39412 184.641 93.9047 -173.399
lowerback 5.73314 0.625888 -3.70282
upperback 5.14667 0.860219 -1.10849
thorax 2.06435 0.406118 0.902134
lowerneck -5.72694 5.17348 10.9485
upperneck 12.8587 7.35015 -10.0592
head 5.5775 3.55585 -4.45433
rclavicle -4.77083e-015 1.78906e-014
rhumerus -31.0712 -11.0245 -84.1614
rradius 32.2806
rwrist -18.518
rhand -18.3924 1.84973
rfingers 7.12502
rthumb 7.89158 -27.983
lclavicle -4.77083e-015 1.78906e-014
lhumerus -17.4209 -11.4264 93.0265
lradius 32.4244
lwrist 1.51255
lhand -19.1056 11.0427
lfingers 7.12502
lthumb 7.20319 40.9001
rfemur -27.1096 10.0036 19.2797
rtibia 48.1469
rfoot -18.4543 -26.5515
rtoes -28.8349
lfemur 11.4143 -12.3137 -32.5043
ltibia 12.6179
lfoot -20.798 18.7091
ltoes 2.62262
720
root 1.07137 15.2216 5.42779 189.934 93.2261 -168.127
lowerback 5.68796 0.613052 -3.90528
upperback 5.17061 0.842686 -1.15741
thorax 2.11464 0.392592 0.966298
lowerneck -5.7782 5.10517 10.958
upperneck 13.0601 7.25881 -9.98327
head 5.6361 3.51644 -4.43864
rclavicle 9.93923e-016 -6.36111e-015
rhumerus -30.9969 -10.6603 -84.2904
rradius 32.4513
rwrist -18.5609
rhand -18.2477 1.89473
rfingers 7.12502
rthumb 8.03125 -27.9327
lclavicle 9.93923e-016 -6.36111e-015
lhumerus -17.1331 -12.5133 93.4057
lradius 33.8794
lwrist 2.09057
lhand -19.0973 11.5286
lfingers 7.12502
lthumb 7.21124 41.3858
rfemur -27.2706 10.5383 18.7801
rtibia 44.152
rfoot -19.094 -26.4357
rtoes -29.6009
lfemur 13.9954 -12.3467 -32.7359
ltibia 9.22733
lfoot -19.0346 18.5667
ltoes 1.5809
721
root 1.27734 15.2262 5.457 198.998 92.8112 -159.145
lowerback 5.60467 0.656662 -4.15987
upperback 5.16361 0.898952 -1.23903
thorax 2.15073 0.415001 1.02329
lowerneck -5.85404 5.08422 10.9547
upperneck 13.2388 7.23219 -9.92886
head 5.69957 3.50582 -4.42168
rclavicle -3.57812e-015 -1.98785e-014
rhumerus -30.9404 -10.6261 -84.3278
rradius 32.5886
rwrist -18.0803
rhand -17.9867 2.14854
rfingers 7.12502
rthumb 8.28317 -27.6691
lclavicle -3.57812e-015 -1.98785e-014
lhumerus -16.8302 -13.3998 93.7608
lradius 35.1314
lwrist 2.72803
lhand -19.8184 10.7982
lfingers 7.12502
lthumb 6.5151 40.678
rfemur -27.5235 11.3291 18.0902
rtibia 40.303
rfoot -18.5594 -26.8154
rtoes -32.8371
lfemur 17.6239 -12.2034 -33.0314
ltibia 3.68524
lfoot -16.1485 18.3
ltoes 0.341463
